<svg width="12" height="13" viewBox="0 0 12 13" fill="none" xmlns="http://www.w3.org/2000/svg">
<path d="M10.7474 6.74756C10.7474 9.50756 8.50744 11.7476 5.74744 11.7476C2.98744 11.7476 0.747437 9.50756 0.747437 6.74756C0.747437 3.98756 2.98744 1.74756 5.74744 1.74756" stroke="#D0D5DD" stroke-width="1.28571" stroke-miterlimit="10" stroke-linecap="round"/>
<path d="M9.67737 1.25244V4.41244" stroke="#D0D5DD" stroke-width="1.28571" stroke-miterlimit="10"/>
<path d="M11.2525 2.83252H8.09753" stroke="#D0D5DD" stroke-width="1.28571" stroke-miterlimit="10"/>
<path d="M3.99744 5.49756H4.00244M4.24744 5.49756C4.24744 5.63563 4.13551 5.74756 3.99744 5.74756C3.85937 5.74756 3.74744 5.63563 3.74744 5.49756C3.74744 5.35949 3.85937 5.24756 3.99744 5.24756C4.13551 5.24756 4.24744 5.35949 4.24744 5.49756Z" stroke="#D0D5DD" stroke-width="1.28571" stroke-linecap="round" stroke-linejoin="round"/>
<path d="M7.49744 5.49756H7.50244M7.74744 5.49756C7.74744 5.63563 7.63551 5.74756 7.49744 5.74756C7.35937 5.74756 7.24744 5.63563 7.24744 5.49756C7.24744 5.35949 7.35937 5.24756 7.49744 5.24756C7.63551 5.24756 7.74744 5.35949 7.74744 5.49756Z" stroke="#D0D5DD" stroke-width="1.28571" stroke-linecap="round" stroke-linejoin="round"/>
<path d="M3.74744 8.24756C3.74744 8.24756 4.49744 9.24756 5.74744 9.24756C6.99744 9.24756 7.74744 8.24756 7.74744 8.24756" stroke="#D0D5DD" stroke-width="1.28571" stroke-linecap="round" stroke-linejoin="round"/>
</svg>
