<svg width="22" height="20" viewBox="0 0 22 20" fill="none" xmlns="http://www.w3.org/2000/svg">
<path d="M12.4996 10H17.9996M18.0842 10.2915L20.4191 17.2662C20.6026 17.8142 20.6943 18.0881 20.6285 18.2569C20.5713 18.4034 20.4486 18.5145 20.2971 18.5567C20.1226 18.6054 19.8592 18.4869 19.3322 18.2497L2.62077 10.7296C2.10644 10.4981 1.84928 10.3824 1.7698 10.2216C1.70074 10.082 1.70074 9.9181 1.7698 9.77843C1.84928 9.61767 2.10645 9.50195 2.62077 9.2705L19.3381 1.74776C19.8634 1.51135 20.1261 1.39315 20.3003 1.44164C20.4517 1.48375 20.5744 1.59454 20.6318 1.74078C20.6978 1.90917 20.6071 2.18255 20.4256 2.72931L18.0836 9.78556C18.0524 9.87947 18.0368 9.92642 18.0307 9.97444C18.0252 10.0171 18.0253 10.0602 18.0308 10.1028C18.0371 10.1508 18.0528 10.1977 18.0842 10.2915Z" stroke="#667085" stroke-width="2" stroke-linecap="round" stroke-linejoin="round"/>
</svg>
