<svg width="150" height="73" viewBox="0 0 150 73" fill="none" xmlns="http://www.w3.org/2000/svg">
<path fill-rule="evenodd" clip-rule="evenodd" d="M0 0L8.43083 7.8125C16.7358 15.625 33.5975 31.25 50.3333 34.375C67.0692 37.5 83.9308 28.125 100.667 25C117.402 21.875 134.264 25 142.569 26.5625L151 28.125V75H142.569C134.264 75 117.402 75 100.667 75C83.9308 75 67.0692 75 50.3333 75C33.5975 75 16.7358 75 8.43083 75H0V0Z" fill="black" fill-opacity="0.05" style="mix-blend-mode:multiply"/>
<path fill-rule="evenodd" clip-rule="evenodd" d="M0 0L8.43083 7.8125C16.7358 15.625 33.5975 31.25 50.3333 34.375C67.0692 37.5 83.9308 28.125 100.667 25C117.402 21.875 134.264 25 142.569 26.5625L151 28.125V75H142.569C134.264 75 117.402 75 100.667 75C83.9308 75 67.0692 75 50.3333 75C33.5975 75 16.7358 75 8.43083 75H0V0Z" stroke="black"/>
</svg>
