<svg width="19" height="21" viewBox="0 0 19 21" fill="none" xmlns="http://www.w3.org/2000/svg">
<path d="M0.5 9.56505C0.5 8.9907 0.5 8.70352 0.574027 8.43905C0.639601 8.20478 0.747366 7.98444 0.892027 7.78886C1.05534 7.56806 1.28202 7.39175 1.73539 7.03912L8.5177 1.764C8.86902 1.49075 9.04468 1.35412 9.23865 1.3016C9.4098 1.25526 9.5902 1.25526 9.76135 1.3016C9.95532 1.35412 10.131 1.49075 10.4823 1.764L17.2646 7.03913C17.718 7.39175 17.9447 7.56806 18.108 7.78886C18.2526 7.98444 18.3604 8.20478 18.426 8.43905C18.5 8.70352 18.5 8.9907 18.5 9.56505V16.8C18.5 17.9201 18.5 18.4801 18.282 18.908C18.0903 19.2843 17.7843 19.5903 17.408 19.782C16.9802 20 16.4201 20 15.3 20H3.7C2.57989 20 2.01984 20 1.59202 19.782C1.21569 19.5903 0.909734 19.2843 0.717987 18.908C0.5 18.4801 0.5 17.9201 0.5 16.8V9.56505Z" fill="#015555"/>
<path d="M6.5 20V12.6C6.5 12.0399 6.5 11.7599 6.60899 11.546C6.70487 11.3578 6.85785 11.2049 7.04601 11.109C7.25992 11 7.53995 11 8.1 11H10.9C11.4601 11 11.7401 11 11.954 11.109C12.1422 11.2049 12.2951 11.3578 12.391 11.546C12.5 11.7599 12.5 12.0399 12.5 12.6V20" fill="#015555"/>
<path d="M6.5 20V12.6C6.5 12.0399 6.5 11.7599 6.60899 11.546C6.70487 11.3578 6.85785 11.2049 7.04601 11.109C7.25992 11 7.53995 11 8.1 11H10.9C11.4601 11 11.7401 11 11.954 11.109C12.1422 11.2049 12.2951 11.3578 12.391 11.546C12.5 11.7599 12.5 12.0399 12.5 12.6V20M8.5177 1.764L1.73539 7.03912C1.28202 7.39175 1.05534 7.56806 0.892027 7.78886C0.747366 7.98444 0.639601 8.20478 0.574027 8.43905C0.5 8.70352 0.5 8.9907 0.5 9.56505V16.8C0.5 17.9201 0.5 18.4801 0.717987 18.908C0.909734 19.2843 1.21569 19.5903 1.59202 19.782C2.01984 20 2.57989 20 3.7 20H15.3C16.4201 20 16.9802 20 17.408 19.782C17.7843 19.5903 18.0903 19.2843 18.282 18.908C18.5 18.4801 18.5 17.9201 18.5 16.8V9.56505C18.5 8.9907 18.5 8.70352 18.426 8.43905C18.3604 8.20478 18.2526 7.98444 18.108 7.78886C17.9447 7.56806 17.718 7.39175 17.2646 7.03913L10.4823 1.764C10.131 1.49075 9.95532 1.35412 9.76135 1.3016C9.5902 1.25526 9.4098 1.25526 9.23865 1.3016C9.04468 1.35412 8.86902 1.49075 8.5177 1.764Z" stroke="#015555" stroke-linecap="round" stroke-linejoin="round"/>
</svg>
