<?xml version="1.0" standalone="no"?>
<!DOCTYPE svg PUBLIC "-//W3C//DTD SVG 20010904//EN"
 "http://www.w3.org/TR/2001/REC-SVG-20010904/DTD/svg10.dtd">
<svg version="1.0" xmlns="http://www.w3.org/2000/svg"
 width="3543.000000pt" height="3543.000000pt" viewBox="0 0 3543.000000 3543.000000"
 preserveAspectRatio="xMidYMid meet">

<g transform="translate(0.000000,3543.000000) scale(0.100000,-0.100000)"
fill="#000000" stroke="none">
<path d="M9800 27105 c0 -1035 1 -1096 18 -1101 17 -6 28 -11 135 -58 32 -14
63 -26 70 -26 7 0 17 -4 22 -9 6 -5 33 -19 61 -30 64 -25 140 -58 177 -77 16
-8 33 -14 38 -14 6 0 36 -12 67 -26 31 -14 73 -33 92 -41 19 -8 46 -19 60 -25
26 -11 63 -27 115 -48 48 -20 86 -37 148 -64 32 -14 61 -26 65 -26 5 0 32 -11
60 -25 29 -14 58 -25 65 -25 7 0 17 -4 22 -9 6 -5 33 -19 61 -30 64 -25 140
-58 177 -77 16 -8 33 -14 38 -14 6 0 36 -12 67 -26 31 -14 73 -33 92 -41 19
-8 46 -19 60 -25 26 -11 63 -27 115 -48 48 -20 86 -37 148 -64 32 -14 61 -26
65 -26 5 0 32 -11 60 -25 29 -14 58 -25 65 -25 7 0 17 -4 23 -9 5 -5 61 -30
124 -56 63 -26 119 -51 125 -56 5 -5 15 -9 22 -9 7 0 38 -12 70 -26 32 -15 74
-33 93 -41 19 -8 46 -19 60 -25 26 -11 63 -27 115 -48 48 -20 86 -37 148 -64
32 -14 61 -26 65 -26 4 0 30 -11 57 -25 28 -13 57 -25 66 -25 8 0 19 -4 25 -9
5 -5 60 -30 123 -56 62 -25 121 -50 130 -55 9 -4 34 -16 56 -25 22 -9 51 -21
65 -27 26 -11 63 -27 115 -48 17 -7 44 -18 60 -25 17 -7 44 -18 60 -25 48 -20
86 -37 148 -64 32 -14 64 -26 72 -26 7 0 16 -4 19 -9 3 -4 27 -16 53 -26 48
-17 93 -36 176 -75 24 -11 47 -20 51 -20 4 0 33 -12 64 -26 31 -14 73 -33 92
-41 19 -8 46 -19 60 -25 26 -11 63 -27 115 -48 17 -7 44 -18 60 -25 17 -7 44
-18 60 -25 48 -20 86 -37 148 -64 32 -14 63 -26 70 -26 7 0 17 -4 23 -9 5 -5
60 -30 123 -56 62 -25 121 -50 130 -54 9 -5 30 -14 46 -21 17 -7 44 -18 60
-25 17 -7 48 -20 70 -30 22 -9 51 -21 65 -27 26 -11 63 -27 115 -48 17 -7 44
-18 60 -25 17 -7 44 -18 60 -25 48 -20 86 -37 148 -64 32 -14 64 -26 72 -26 7
0 16 -4 19 -9 3 -4 27 -16 53 -26 26 -9 67 -26 91 -36 82 -37 137 -61 162 -71
14 -6 39 -16 55 -23 30 -13 88 -37 135 -57 65 -27 92 -38 175 -74 17 -7 56
-24 88 -38 32 -14 61 -26 65 -26 5 0 32 -11 60 -25 29 -14 58 -25 65 -25 7 0
17 -4 23 -9 5 -5 60 -30 123 -56 62 -25 121 -50 130 -54 9 -5 30 -14 46 -21
17 -6 43 -18 58 -26 16 -8 33 -14 38 -14 4 0 34 -12 66 -26 60 -27 97 -43 148
-64 48 -20 86 -37 148 -64 32 -14 61 -26 65 -26 4 0 30 -11 57 -25 28 -13 57
-25 66 -25 8 0 19 -4 25 -9 5 -5 61 -30 124 -56 63 -26 119 -51 124 -56 6 -5
16 -9 23 -9 7 0 36 -11 65 -25 28 -14 55 -25 60 -25 4 0 33 -12 65 -26 60 -27
97 -43 148 -64 48 -20 86 -37 148 -64 32 -14 61 -26 65 -26 4 0 30 -11 57 -25
28 -13 57 -25 66 -25 8 0 19 -4 25 -9 5 -5 76 -36 157 -70 81 -34 169 -71 195
-82 26 -12 63 -28 82 -36 19 -8 46 -19 60 -25 37 -16 81 -34 115 -48 44 -18
82 -34 148 -64 32 -14 61 -26 65 -26 4 0 30 -11 57 -25 28 -13 57 -25 66 -25
8 0 19 -4 25 -9 5 -5 61 -30 124 -56 63 -26 119 -51 124 -56 6 -5 16 -9 23 -9
7 0 38 -12 70 -26 60 -27 97 -43 148 -64 17 -7 44 -18 60 -25 17 -7 44 -18 60
-25 44 -18 82 -34 148 -64 32 -14 63 -26 70 -26 7 0 17 -4 23 -9 5 -5 61 -30
124 -56 63 -26 119 -51 125 -56 5 -5 15 -9 23 -9 7 0 39 -12 70 -26 31 -14 73
-33 92 -41 19 -8 46 -19 60 -25 37 -16 81 -34 115 -48 44 -18 82 -34 148 -64
32 -14 61 -26 65 -26 5 0 32 -11 60 -25 29 -14 58 -25 65 -25 7 0 17 -4 23 -9
5 -5 61 -30 124 -56 63 -26 119 -51 125 -56 5 -5 15 -9 23 -9 7 0 39 -12 70
-26 63 -28 79 -35 137 -59 22 -9 54 -22 70 -29 17 -7 44 -19 60 -26 51 -21 88
-37 148 -64 32 -14 64 -26 72 -26 7 0 16 -4 19 -9 3 -4 27 -16 53 -25 26 -10
62 -24 78 -31 76 -34 131 -58 179 -76 28 -11 55 -25 61 -30 5 -5 15 -9 22 -9
7 0 38 -12 70 -26 32 -15 74 -33 93 -41 19 -8 44 -18 55 -23 11 -5 33 -11 48
-15 23 -5 28 -10 25 -32 -3 -30 -12 -35 -90 -58 -32 -9 -60 -21 -64 -26 -3 -5
-13 -9 -23 -9 -16 0 -59 -17 -103 -41 -10 -5 -24 -9 -32 -9 -8 0 -29 -8 -48
-17 -60 -30 -68 -33 -82 -33 -8 0 -29 -8 -48 -17 -61 -30 -68 -33 -86 -33 -9
0 -26 -6 -37 -13 -11 -7 -38 -19 -60 -26 -22 -7 -53 -19 -70 -26 -28 -12 -96
-38 -140 -55 -11 -4 -40 -15 -65 -25 -25 -10 -54 -21 -65 -25 -11 -4 -40 -15
-65 -25 -25 -10 -54 -21 -65 -25 -11 -4 -39 -15 -62 -24 -24 -9 -62 -23 -85
-32 -24 -9 -52 -20 -63 -24 -11 -4 -40 -15 -65 -25 -25 -10 -54 -21 -65 -25
-11 -4 -40 -15 -65 -25 -25 -10 -54 -21 -65 -25 -11 -4 -40 -15 -65 -25 -25
-10 -54 -21 -65 -25 -50 -19 -113 -44 -140 -55 -16 -8 -54 -21 -83 -30 -29
-10 -55 -21 -58 -26 -3 -5 -14 -9 -25 -9 -19 0 -26 -2 -87 -33 -19 -9 -40 -17
-48 -17 -14 0 -22 -3 -82 -33 -19 -9 -39 -17 -46 -17 -12 0 -59 -19 -98 -41
-10 -5 -27 -9 -37 -9 -11 0 -22 -4 -25 -9 -4 -5 -32 -17 -64 -27 -31 -9 -68
-23 -82 -30 -14 -7 -47 -20 -75 -29 -27 -9 -54 -20 -60 -24 -5 -4 -28 -13 -50
-20 -22 -7 -53 -19 -70 -26 -16 -7 -50 -20 -75 -30 -25 -9 -53 -21 -62 -26
-10 -5 -26 -9 -36 -9 -10 0 -22 -4 -27 -9 -6 -5 -35 -18 -65 -29 -112 -41
-196 -72 -215 -81 -18 -8 -70 -28 -130 -51 -11 -4 -40 -15 -65 -25 -25 -10
-54 -21 -65 -25 -11 -4 -40 -15 -65 -25 -25 -10 -54 -21 -65 -25 -49 -19 -105
-40 -170 -65 -38 -15 -88 -34 -110 -42 -59 -22 -75 -29 -125 -48 -25 -10 -54
-21 -65 -25 -11 -4 -40 -15 -65 -25 -25 -10 -54 -21 -65 -25 -48 -18 -112 -44
-140 -55 -16 -7 -52 -21 -80 -30 -27 -9 -54 -20 -60 -24 -5 -4 -36 -16 -67
-25 -32 -10 -60 -22 -64 -27 -3 -5 -14 -9 -25 -9 -19 0 -26 -2 -87 -33 -19 -9
-39 -17 -46 -17 -12 0 -59 -19 -98 -41 -10 -5 -27 -9 -37 -9 -11 0 -22 -4 -25
-9 -4 -5 -32 -17 -64 -27 -31 -9 -68 -23 -82 -30 -14 -7 -47 -20 -75 -29 -27
-9 -54 -20 -60 -24 -5 -4 -35 -15 -65 -25 -30 -10 -59 -23 -65 -27 -5 -5 -17
-9 -26 -9 -10 0 -32 -8 -51 -17 -60 -30 -68 -33 -82 -33 -8 0 -27 -6 -43 -14
-15 -8 -39 -19 -53 -24 -14 -5 -38 -15 -55 -22 -16 -6 -50 -19 -75 -27 -25 -8
-58 -21 -75 -28 -28 -11 -92 -37 -140 -55 -11 -4 -40 -15 -65 -25 -25 -10 -54
-21 -65 -25 -11 -4 -40 -15 -65 -25 -25 -10 -54 -21 -65 -25 -48 -18 -112 -44
-140 -55 -16 -7 -50 -20 -75 -28 -25 -8 -58 -21 -75 -27 -16 -7 -39 -16 -50
-20 -20 -8 -88 -34 -135 -52 -14 -5 -38 -16 -53 -24 -16 -8 -36 -14 -46 -14
-9 0 -21 -4 -26 -8 -6 -5 -32 -17 -60 -26 -27 -10 -63 -24 -80 -31 -16 -7 -54
-21 -82 -30 -48 -16 -63 -35 -27 -35 8 0 22 -4 32 -9 9 -5 37 -17 62 -26 41
-16 83 -33 135 -55 11 -4 36 -14 55 -22 19 -8 51 -21 70 -28 19 -6 49 -18 65
-25 17 -7 44 -18 60 -25 17 -7 44 -18 60 -25 17 -7 44 -18 60 -25 17 -6 43
-18 58 -26 16 -8 35 -14 42 -14 7 0 26 -6 42 -14 15 -8 42 -20 58 -26 17 -7
44 -19 60 -26 17 -6 62 -24 100 -39 81 -31 109 -42 150 -60 17 -7 62 -25 100
-40 39 -15 84 -33 100 -40 17 -7 44 -18 60 -25 17 -7 44 -18 60 -25 48 -20 77
-31 125 -50 43 -17 91 -36 135 -55 11 -4 52 -20 90 -35 39 -15 84 -33 100 -40
17 -7 44 -18 60 -25 17 -7 44 -18 60 -25 17 -7 62 -25 100 -40 63 -24 90 -36
160 -65 11 -4 52 -20 90 -35 39 -15 84 -33 100 -40 17 -7 44 -18 60 -25 17 -7
44 -18 60 -25 17 -7 62 -25 100 -40 39 -15 84 -33 100 -40 34 -15 41 -17 185
-75 94 -38 125 -51 195 -80 11 -4 52 -20 90 -35 39 -15 84 -33 100 -40 17 -7
44 -18 60 -25 17 -7 44 -18 60 -25 17 -7 62 -25 100 -40 39 -15 86 -34 105
-42 53 -22 71 -29 120 -48 47 -18 75 -30 125 -50 17 -7 44 -18 60 -25 17 -7
44 -18 60 -25 17 -7 62 -25 100 -40 39 -15 84 -33 100 -40 32 -14 54 -22 125
-50 47 -18 75 -30 125 -50 17 -7 44 -18 60 -25 17 -6 43 -18 58 -26 16 -8 37
-14 47 -14 10 0 21 -4 24 -9 3 -4 27 -16 53 -25 26 -10 62 -24 78 -31 32 -14
52 -22 125 -50 71 -27 93 -36 125 -50 17 -7 48 -20 70 -29 22 -10 48 -21 57
-26 10 -6 24 -10 32 -10 8 0 27 -6 43 -14 15 -8 42 -20 58 -26 17 -7 44 -18
60 -25 31 -14 51 -21 125 -50 55 -22 95 -38 195 -80 56 -23 74 -30 125 -50 66
-25 91 -36 125 -50 48 -20 77 -31 125 -50 100 -39 220 -90 252 -106 10 -5 24
-9 32 -9 8 0 27 -6 43 -14 15 -8 42 -20 58 -26 17 -7 44 -18 60 -25 49 -20 77
-32 125 -50 25 -10 59 -23 75 -30 17 -7 44 -18 60 -25 17 -7 44 -19 60 -26 17
-6 62 -24 100 -39 39 -15 77 -30 85 -35 9 -4 30 -11 48 -15 28 -6 33 -11 30
-32 -4 -31 11 -24 -233 -124 -110 -45 -206 -85 -215 -90 -8 -4 -78 -33 -155
-64 -77 -32 -144 -61 -149 -66 -6 -5 -17 -9 -25 -9 -9 0 -38 -12 -66 -25 -27
-14 -53 -25 -58 -25 -4 0 -30 -11 -59 -25 -28 -14 -55 -25 -60 -25 -4 0 -33
-12 -65 -26 -62 -27 -100 -44 -148 -64 -16 -7 -43 -18 -60 -25 -16 -7 -52 -21
-78 -31 -26 -9 -50 -21 -53 -25 -3 -5 -12 -9 -19 -9 -8 0 -40 -12 -72 -26 -62
-27 -100 -44 -148 -64 -16 -7 -43 -18 -60 -25 -16 -7 -43 -18 -60 -25 -16 -7
-43 -18 -60 -25 -30 -13 -88 -37 -135 -57 -14 -5 -38 -16 -55 -23 -16 -7 -43
-18 -60 -25 -16 -7 -43 -18 -60 -25 -16 -7 -43 -18 -60 -25 -16 -7 -43 -18
-60 -25 -29 -12 -87 -37 -130 -55 -53 -21 -102 -42 -125 -52 -26 -11 -63 -27
-115 -48 -16 -7 -43 -19 -60 -26 -16 -7 -48 -20 -70 -29 -68 -28 -148 -61
-185 -77 -26 -11 -63 -27 -115 -48 -48 -20 -86 -37 -148 -64 -32 -14 -61 -26
-65 -26 -5 0 -32 -11 -60 -25 -29 -14 -56 -25 -61 -25 -5 0 -22 -6 -38 -14
-15 -8 -41 -20 -58 -26 -32 -13 -61 -26 -135 -58 -25 -11 -81 -34 -125 -52
-44 -18 -103 -43 -132 -56 -28 -13 -58 -24 -65 -24 -8 0 -18 -4 -24 -9 -5 -5
-88 -41 -184 -81 -96 -40 -179 -77 -184 -81 -6 -5 -16 -9 -23 -9 -7 0 -36 -11
-65 -24 -29 -13 -89 -38 -133 -56 -44 -18 -84 -36 -89 -41 -6 -5 -17 -9 -25
-9 -9 0 -38 -12 -66 -25 -27 -14 -53 -25 -57 -25 -4 0 -33 -12 -65 -26 -62
-27 -100 -44 -148 -64 -16 -7 -43 -18 -60 -25 -16 -7 -43 -18 -60 -25 -16 -7
-43 -18 -60 -25 -30 -13 -88 -37 -135 -57 -14 -5 -38 -16 -55 -23 -16 -7 -43
-18 -60 -25 -16 -7 -43 -18 -60 -25 -16 -7 -43 -18 -60 -25 -16 -7 -43 -18
-60 -25 -30 -13 -88 -37 -135 -57 -46 -19 -85 -35 -115 -48 -44 -19 -86 -36
-120 -50 -16 -7 -43 -18 -60 -25 -16 -7 -43 -18 -60 -25 -16 -7 -43 -18 -60
-25 -16 -7 -48 -20 -70 -30 -22 -9 -51 -21 -65 -27 -37 -16 -81 -34 -115 -48
-16 -7 -43 -18 -60 -25 -29 -12 -87 -37 -130 -55 -53 -21 -102 -42 -125 -52
-26 -11 -63 -27 -115 -48 -16 -7 -43 -18 -60 -25 -16 -7 -43 -18 -60 -25 -48
-20 -86 -37 -148 -64 -32 -14 -62 -26 -66 -26 -5 0 -22 -6 -38 -14 -15 -8 -41
-20 -58 -26 -16 -7 -37 -16 -46 -20 -8 -4 -51 -22 -95 -40 -43 -18 -103 -43
-132 -56 -29 -13 -56 -24 -60 -24 -4 0 -29 -11 -57 -25 -27 -13 -57 -25 -66
-25 -8 0 -19 -4 -25 -9 -5 -5 -88 -41 -184 -81 -96 -40 -179 -76 -184 -81 -6
-5 -16 -9 -23 -9 -7 0 -36 -11 -65 -24 -29 -13 -89 -38 -133 -56 -44 -18 -84
-36 -89 -41 -6 -5 -17 -9 -25 -9 -9 0 -38 -12 -66 -25 -27 -14 -53 -25 -57
-25 -4 0 -33 -12 -65 -26 -62 -27 -100 -44 -148 -64 -16 -7 -43 -18 -60 -25
-16 -7 -43 -18 -60 -25 -16 -6 -43 -18 -58 -26 -16 -8 -33 -14 -38 -14 -5 0
-32 -11 -61 -25 -28 -14 -55 -25 -60 -25 -4 0 -33 -12 -65 -26 -62 -27 -100
-44 -148 -64 -16 -7 -43 -18 -60 -25 -29 -12 -87 -37 -130 -55 -53 -21 -102
-42 -125 -52 -37 -16 -81 -34 -115 -48 -16 -7 -43 -18 -60 -25 -29 -12 -87
-37 -130 -55 -53 -21 -102 -42 -125 -52 -26 -11 -63 -27 -115 -48 -16 -7 -43
-18 -60 -25 -16 -7 -43 -18 -60 -25 -16 -7 -43 -19 -60 -26 -16 -7 -48 -20
-70 -29 -22 -9 -51 -21 -65 -27 -26 -11 -63 -27 -115 -48 -16 -7 -43 -18 -60
-25 -16 -7 -43 -18 -60 -25 -16 -7 -43 -19 -60 -26 -16 -7 -48 -20 -70 -29
-22 -9 -51 -21 -65 -27 -34 -14 -78 -33 -115 -48 -16 -7 -37 -16 -46 -20 -8
-4 -51 -22 -95 -40 -43 -18 -103 -43 -132 -56 -29 -13 -58 -24 -65 -24 -7 0
-17 -4 -23 -9 -5 -5 -88 -41 -184 -81 -96 -40 -179 -76 -184 -81 -6 -5 -16 -9
-24 -9 -7 0 -37 -11 -65 -24 -29 -13 -115 -49 -192 -81 -77 -31 -144 -61 -149
-66 -6 -5 -17 -9 -25 -9 -9 0 -38 -12 -66 -25 -27 -14 -53 -25 -58 -25 -4 0
-30 -11 -59 -25 -28 -14 -55 -25 -60 -25 -4 0 -33 -12 -65 -26 -65 -28 -103
-45 -148 -64 -16 -6 -43 -18 -58 -26 -16 -8 -33 -14 -38 -14 -5 0 -32 -11 -61
-25 -28 -14 -55 -25 -59 -25 -4 0 -37 -14 -73 -30 l-66 -31 0 -994 c0 -610 4
-995 9 -995 10 0 102 37 189 76 29 13 57 24 62 24 6 0 18 4 28 10 9 5 35 16
57 25 22 9 54 22 70 29 40 18 71 30 125 51 25 10 69 28 98 41 29 13 56 24 61
24 8 0 60 23 93 41 10 5 22 9 28 9 5 0 33 11 62 24 29 13 73 31 98 41 25 10
69 28 98 41 29 13 56 24 61 24 8 0 60 23 93 41 10 5 22 9 28 9 5 0 33 11 62
24 44 20 119 51 288 118 14 5 38 16 53 24 16 8 33 14 38 14 4 0 32 11 61 24
29 13 85 36 123 51 39 15 84 33 100 40 17 7 44 18 60 25 17 7 44 18 60 25 27
11 69 29 130 55 11 4 52 20 90 35 39 15 84 33 100 40 17 7 44 18 60 25 17 7
44 18 60 25 17 7 44 18 60 25 17 7 44 18 60 25 17 7 62 25 100 40 39 15 84 33
100 40 17 7 44 18 60 25 17 7 44 18 60 25 17 7 44 18 60 25 17 7 44 18 60 25
17 7 62 25 100 40 39 15 84 33 100 40 17 7 44 18 60 25 17 7 44 18 60 25 17 7
44 18 60 25 17 7 44 18 60 25 17 7 62 25 100 40 39 15 84 33 100 40 17 7 44
18 60 25 17 7 44 18 60 25 17 7 44 18 60 25 17 7 44 18 60 25 17 7 62 25 100
40 39 15 84 33 100 40 17 7 44 18 60 25 17 7 44 18 60 25 17 7 44 18 60 25 17
7 44 18 60 25 17 7 77 32 135 54 58 23 116 47 130 53 32 14 77 33 115 48 17 7
44 18 60 25 17 7 77 32 135 54 58 23 114 46 125 50 21 9 84 36 125 53 14 5 39
16 55 23 17 7 89 36 160 65 177 71 197 79 217 90 10 6 22 10 28 10 5 0 33 11
62 24 29 13 85 36 123 51 39 15 84 33 100 40 17 8 48 21 70 30 22 9 48 20 57
25 10 6 22 10 28 10 5 0 33 11 62 24 29 13 73 31 98 41 48 19 77 30 125 50 17
7 44 18 60 25 17 6 43 18 58 26 16 8 33 14 38 14 4 0 32 11 61 24 29 13 73 31
98 41 48 19 77 30 125 50 17 7 44 18 60 25 17 6 43 18 58 26 16 8 33 14 38 14
4 0 32 11 61 24 29 13 85 36 123 51 39 15 84 33 100 40 17 7 44 18 60 25 17 6
43 18 58 26 16 8 33 14 38 14 6 0 34 11 62 24 29 13 84 36 122 51 39 15 84 33
100 40 17 7 44 18 60 25 17 7 44 18 60 25 17 7 44 18 60 25 17 7 44 18 60 25
17 7 62 25 100 40 39 15 84 33 100 40 17 7 44 18 60 25 17 7 44 18 60 25 17 7
44 18 60 25 17 7 44 18 60 25 17 7 62 25 100 40 39 15 84 33 100 40 17 7 44
18 60 25 17 7 44 18 60 25 17 7 44 18 60 25 17 7 44 18 60 25 17 7 62 25 100
40 39 15 84 33 100 40 17 7 44 18 60 25 17 7 44 18 60 25 17 7 44 18 60 25 17
7 44 18 60 25 17 7 62 25 100 40 68 27 115 45 165 67 37 16 81 34 115 48 17 7
44 18 60 25 17 7 62 25 100 40 39 15 86 34 105 42 67 28 75 31 115 47 22 10
48 21 57 26 10 6 22 10 28 10 5 0 33 11 62 24 29 13 73 31 98 41 42 17 89 36
135 55 31 13 98 40 120 50 11 4 79 32 150 60 72 29 144 58 160 65 17 8 48 21
70 30 22 9 49 20 60 25 11 4 79 32 150 60 72 29 144 58 160 65 17 7 44 18 60
25 17 6 43 18 58 26 16 8 33 14 38 14 5 0 32 11 61 25 28 14 60 25 69 25 10 0
20 4 23 9 3 4 27 16 53 25 26 10 62 24 78 31 17 7 44 18 60 25 17 7 44 18 60
25 80 34 133 56 195 80 47 18 75 30 125 50 17 7 44 18 60 25 17 7 44 18 60 25
17 7 44 18 60 25 17 7 44 18 60 25 17 7 62 25 100 40 39 15 84 33 100 40 17 7
44 18 60 25 17 7 44 18 60 25 17 7 44 18 60 25 17 7 44 18 60 25 17 7 62 25
100 40 39 15 84 33 100 40 17 7 44 18 60 25 17 7 44 18 60 25 17 7 44 18 60
25 17 7 44 18 60 25 17 7 62 25 100 40 39 15 84 33 100 40 17 7 44 18 60 25
17 7 44 18 60 25 17 7 44 18 60 25 17 7 44 18 60 25 17 7 62 25 100 40 68 27
115 45 165 67 37 16 81 34 115 48 17 7 44 18 60 25 17 7 62 25 100 40 68 27
115 45 165 67 37 16 81 34 115 48 17 7 44 18 60 25 17 7 62 25 100 40 39 15
94 38 123 51 29 13 57 24 62 24 6 0 18 4 28 10 19 10 38 18 192 80 58 23 129
53 158 66 29 13 56 24 61 24 8 0 60 23 93 41 10 5 22 9 28 9 5 0 33 11 62 24
29 13 73 31 98 41 25 10 65 27 90 38 25 11 56 23 70 27 l25 6 3 1070 2 1069
-32 17 c-18 9 -51 23 -73 32 -22 10 -48 21 -57 26 -10 6 -22 10 -28 10 -5 0
-33 11 -62 24 -29 13 -100 43 -158 66 -58 23 -129 53 -158 66 -29 13 -57 24
-61 24 -5 0 -22 6 -38 14 -15 8 -41 20 -58 26 -16 7 -43 18 -60 25 -16 7 -43
18 -60 25 -16 7 -43 18 -60 25 -16 7 -43 18 -60 25 -16 6 -43 18 -58 26 -16 8
-33 14 -38 14 -4 0 -32 11 -61 24 -29 13 -84 36 -123 51 -74 29 -95 38 -188
79 -32 14 -62 26 -67 26 -6 0 -18 4 -28 10 -9 5 -35 16 -57 26 -22 9 -53 22
-70 29 -16 7 -43 18 -60 25 -16 7 -43 18 -60 25 -16 7 -43 18 -60 25 -16 6
-43 18 -58 26 -16 8 -33 14 -38 14 -6 0 -34 11 -62 24 -29 13 -83 36 -122 51
-38 16 -93 39 -122 52 -28 12 -56 23 -62 23 -5 0 -22 6 -38 14 -15 8 -41 20
-58 26 -16 7 -43 18 -60 25 -16 7 -48 20 -70 30 -22 9 -51 21 -65 27 -37 16
-81 34 -115 48 -16 7 -43 18 -60 25 -16 7 -43 18 -60 25 -16 7 -43 18 -60 25
-16 7 -61 25 -100 40 -38 15 -93 38 -122 51 -28 13 -56 24 -62 24 -5 0 -22 6
-38 14 -15 8 -41 20 -58 26 -16 7 -43 18 -60 25 -16 7 -43 18 -60 25 -16 7
-43 18 -60 25 -30 13 -88 37 -135 57 -14 5 -38 16 -55 23 -16 7 -41 17 -55 23
-14 5 -72 29 -130 52 -58 23 -129 53 -158 66 -29 13 -57 24 -61 24 -5 0 -22 6
-38 14 -15 8 -41 20 -58 26 -16 7 -43 18 -60 25 -16 7 -43 18 -60 25 -16 7
-43 18 -60 25 -16 7 -41 18 -55 23 -14 6 -35 14 -47 17 -13 4 -23 14 -23 24 0
16 47 51 69 51 6 0 34 11 63 24 29 13 100 43 158 66 58 23 121 49 140 57 19 8
44 18 55 23 11 4 38 15 60 25 22 9 51 21 65 27 14 5 39 16 55 23 17 7 44 18
60 25 17 7 44 18 60 25 17 7 62 25 100 40 68 27 115 45 165 67 37 16 81 34
115 48 17 7 44 18 60 25 48 20 77 31 125 50 25 10 69 28 98 41 29 13 57 24 61
24 5 0 22 6 38 14 15 8 42 20 58 26 17 7 44 18 60 25 17 7 44 18 60 25 17 7
44 18 60 25 17 7 62 25 100 40 39 15 93 38 122 51 28 13 56 24 62 24 5 0 22 6
38 14 15 8 42 20 58 26 17 7 44 18 60 25 17 7 44 18 60 25 17 7 44 18 60 25
17 7 62 25 100 40 39 15 84 33 100 40 17 7 44 18 60 25 17 7 44 18 60 25 17 7
44 18 60 25 17 7 44 18 60 25 17 7 44 18 60 25 17 6 43 18 58 26 16 8 37 14
47 14 10 0 21 4 24 9 3 4 27 16 53 25 26 10 62 24 78 31 17 7 44 18 60 25 17
7 44 18 60 25 17 7 44 18 60 25 17 7 44 18 60 25 17 7 89 36 160 65 72 29 144
58 160 65 17 7 44 18 60 25 17 7 44 18 60 25 17 7 44 18 60 25 17 7 44 18 60
25 17 7 62 25 100 40 39 15 84 33 100 40 17 7 44 18 60 25 17 7 44 18 60 25
17 7 44 18 60 25 62 25 101 42 125 54 l25 12 3 1063 c1 778 -1 1067 -9 1077
-6 8 -22 14 -35 14 -12 0 -25 4 -28 9 -3 4 -27 16 -53 25 -26 10 -61 24 -78
31 -16 7 -43 18 -60 25 -16 7 -43 18 -60 25 -16 7 -43 18 -60 25 -16 7 -43 18
-60 25 -16 7 -48 20 -70 29 -22 10 -48 21 -57 26 -10 6 -22 10 -28 10 -5 0
-33 11 -62 24 -29 13 -100 43 -158 66 -58 23 -129 53 -158 66 -29 13 -57 24
-61 24 -5 0 -22 6 -38 14 -15 8 -41 20 -58 26 -16 7 -43 18 -60 25 -16 7 -43
18 -60 25 -16 6 -43 18 -58 26 -16 8 -33 14 -38 14 -6 0 -34 11 -62 24 -29 13
-83 36 -122 51 -38 15 -83 33 -100 40 -16 7 -43 18 -60 25 -16 7 -43 18 -60
25 -16 7 -43 18 -60 25 -16 7 -43 18 -60 25 -16 7 -43 18 -60 25 -16 6 -43 18
-58 26 -16 8 -33 14 -38 14 -4 0 -32 11 -61 24 -29 13 -100 43 -158 66 -58 23
-129 53 -158 66 -29 13 -57 24 -62 24 -6 0 -18 4 -28 10 -9 5 -35 16 -57 26
-22 9 -53 22 -70 29 -16 7 -43 18 -60 25 -16 6 -43 18 -58 26 -16 8 -33 14
-38 14 -6 0 -34 11 -62 23 -29 13 -83 36 -122 52 -38 15 -83 33 -100 40 -16 7
-43 18 -60 25 -16 7 -43 18 -60 25 -16 7 -43 18 -60 25 -16 7 -43 18 -60 25
-16 7 -43 18 -60 25 -16 7 -43 18 -60 25 -16 7 -88 37 -160 65 -71 29 -143 58
-160 65 -16 8 -48 21 -70 30 -68 28 -148 61 -185 77 -40 17 -82 35 -115 48
-16 6 -43 18 -58 26 -16 8 -33 14 -38 14 -6 0 -34 11 -62 23 -29 13 -83 36
-122 52 -38 15 -83 33 -100 40 -16 7 -43 18 -60 25 -16 7 -43 18 -60 25 -16 7
-43 18 -60 25 -16 7 -43 18 -60 25 -16 7 -43 18 -60 25 -16 7 -43 18 -60 25
-16 7 -61 25 -100 40 -38 16 -93 39 -122 52 -28 12 -56 23 -62 23 -5 0 -22 6
-38 14 -52 27 -143 66 -153 66 -6 0 -18 4 -28 10 -9 5 -35 16 -57 25 -50 21
-105 45 -127 56 -10 5 -22 9 -28 9 -5 0 -33 11 -62 24 -29 13 -73 31 -98 41
-25 10 -69 28 -98 41 -29 13 -57 24 -61 24 -5 0 -22 6 -38 14 -15 8 -41 20
-58 26 -16 7 -43 18 -60 25 -16 7 -43 18 -60 25 -16 7 -43 18 -60 25 -16 7
-43 18 -60 25 -16 6 -43 18 -58 26 -16 8 -33 14 -38 14 -4 0 -32 11 -61 24
-29 13 -84 36 -123 51 -38 15 -83 33 -100 40 -16 7 -43 18 -60 25 -16 7 -43
19 -60 26 -16 7 -48 20 -70 29 -22 9 -48 20 -57 25 -10 6 -22 10 -28 10 -5 0
-33 11 -62 24 -29 13 -100 43 -158 66 -58 23 -129 53 -158 66 -29 13 -57 24
-61 24 -5 0 -22 6 -38 14 -15 8 -41 20 -58 26 -16 7 -43 18 -60 25 -16 7 -43
18 -60 25 -16 7 -43 18 -60 25 -16 7 -43 18 -60 25 -16 6 -43 18 -58 26 -16 8
-33 14 -38 14 -5 0 -32 11 -61 25 -28 14 -60 25 -69 25 -10 0 -20 4 -23 9 -3
4 -27 16 -53 25 -26 10 -61 24 -78 31 -16 7 -43 18 -60 25 -16 7 -43 19 -60
26 -16 7 -48 20 -70 29 -51 21 -92 38 -180 75 -11 4 -67 27 -125 50 -58 23
-129 53 -158 66 -29 13 -57 24 -62 24 -6 0 -18 4 -28 10 -9 5 -35 16 -57 26
-22 9 -53 22 -70 29 -16 7 -43 18 -60 25 -16 7 -43 18 -60 25 -16 7 -43 18
-60 25 -16 7 -43 18 -60 25 -16 7 -61 25 -100 40 -38 15 -93 38 -122 51 -28
13 -56 24 -62 24 -5 0 -22 6 -38 14 -15 8 -41 20 -58 26 -16 7 -43 18 -60 25
-29 12 -87 37 -130 55 -21 8 -85 35 -120 50 -11 4 -67 27 -125 50 -58 23 -129
53 -158 66 -29 13 -57 24 -62 24 -6 0 -18 4 -28 10 -9 5 -35 16 -57 26 -22 9
-53 22 -70 29 -16 7 -43 18 -60 25 -16 7 -43 18 -60 25 -16 7 -43 18 -60 25
-16 7 -43 18 -60 25 -16 7 -61 25 -100 40 -38 15 -93 38 -122 51 -28 13 -56
24 -62 24 -5 0 -22 6 -38 14 -15 8 -41 20 -58 26 -16 7 -43 18 -60 25 -16 7
-43 18 -60 25 -16 6 -43 18 -58 26 -16 8 -33 14 -38 14 -4 0 -32 11 -61 24
-29 13 -100 43 -158 66 -58 23 -129 53 -158 66 -29 13 -57 24 -62 24 -6 0 -18
4 -28 10 -9 5 -35 16 -57 26 -22 9 -53 22 -70 29 -16 7 -43 18 -60 25 -16 7
-43 18 -60 25 -16 7 -43 18 -60 25 -16 7 -43 18 -60 25 -16 7 -61 25 -100 40
-38 15 -93 38 -122 51 -28 13 -56 24 -62 24 -5 0 -22 6 -38 14 -15 8 -41 20
-58 26 -16 7 -43 18 -60 25 -16 7 -43 18 -60 25 -16 6 -43 18 -58 26 -16 8
-33 14 -38 14 -4 0 -32 11 -61 24 -29 13 -84 36 -123 51 -38 15 -83 33 -100
40 -16 7 -43 18 -60 25 -16 7 -43 19 -60 26 -16 7 -48 20 -70 29 -68 28 -148
61 -185 77 -37 16 -81 34 -115 48 -16 7 -43 18 -60 25 -16 7 -61 25 -100 40
-68 27 -115 45 -165 67 -26 11 -63 27 -115 48 -16 7 -43 18 -60 25 -16 7 -43
18 -60 25 -16 7 -43 18 -60 25 -16 7 -43 18 -60 25 -16 7 -43 18 -60 25 -16 7
-61 25 -100 40 -38 15 -83 33 -100 40 -16 7 -43 18 -60 25 -16 7 -43 19 -60
26 -16 7 -48 20 -70 29 -22 9 -49 20 -60 25 -11 4 -38 15 -60 24 -22 10 -48
21 -57 26 -10 6 -22 10 -28 10 -5 0 -35 12 -67 26 -93 41 -114 50 -188 79 -38
15 -94 38 -123 51 -29 13 -57 24 -61 24 -5 0 -22 6 -38 14 -15 8 -41 20 -58
26 -16 7 -43 18 -60 25 -16 7 -43 18 -60 25 -16 7 -43 18 -60 25 -16 7 -43 18
-60 25 -16 7 -43 18 -60 25 -16 7 -61 25 -100 40 -38 16 -93 39 -122 52 -28
12 -57 23 -62 23 -8 0 -11 -329 -11 -1095z"/>
<path d="M9800 21211 l0 -1071 48 -21 c54 -24 94 -42 137 -59 17 -7 44 -18 60
-25 17 -7 44 -18 60 -25 48 -20 86 -37 148 -64 32 -14 64 -26 72 -26 7 0 16
-4 19 -9 3 -4 27 -16 53 -25 26 -10 62 -24 78 -31 122 -55 146 -65 151 -65 3
0 29 -11 57 -24 29 -13 115 -49 192 -81 76 -32 146 -61 155 -65 8 -4 29 -13
45 -20 37 -15 81 -34 115 -48 14 -6 43 -18 65 -27 22 -9 54 -22 70 -29 80 -35
109 -47 180 -76 17 -7 44 -19 60 -26 17 -7 48 -20 70 -29 22 -9 51 -21 65 -27
26 -11 63 -27 115 -48 17 -7 44 -18 60 -25 17 -7 44 -18 60 -25 48 -20 86 -37
148 -64 32 -14 63 -26 70 -26 7 0 17 -4 23 -9 5 -5 32 -19 60 -30 28 -11 71
-29 95 -39 24 -11 80 -34 124 -52 44 -18 84 -36 89 -41 6 -5 17 -9 25 -9 9 0
39 -12 66 -25 28 -14 53 -25 57 -25 4 0 33 -12 65 -26 62 -27 100 -44 148 -64
17 -7 44 -18 60 -25 45 -19 109 -46 190 -79 22 -10 48 -21 57 -26 10 -6 26
-10 35 -10 15 0 1016 490 1063 520 8 6 26 15 40 21 51 22 65 29 80 38 38 24
1207 601 1218 601 18 0 14 20 -5 26 -10 3 -27 9 -38 14 -11 4 -51 20 -90 35
-38 15 -83 33 -100 40 -16 7 -43 18 -60 25 -16 7 -43 18 -60 25 -45 18 -75 31
-125 50 -25 10 -68 29 -97 42 -28 12 -56 23 -62 23 -5 0 -22 6 -38 14 -15 8
-41 20 -58 26 -16 7 -43 18 -60 25 -16 7 -61 25 -100 40 -68 27 -115 45 -165
67 -37 16 -81 34 -115 48 -16 7 -43 18 -60 25 -16 7 -61 25 -100 40 -38 15
-86 34 -105 42 -19 8 -44 18 -55 23 -18 7 -55 23 -120 50 -11 4 -51 20 -90 35
-38 15 -83 33 -100 40 -16 8 -48 21 -70 30 -22 9 -49 20 -60 25 -11 4 -36 14
-55 22 -19 8 -51 21 -70 28 -19 6 -48 18 -65 25 -16 7 -43 18 -60 25 -16 7
-43 18 -60 25 -16 7 -43 18 -60 25 -16 7 -43 18 -60 25 -16 7 -61 25 -100 40
-38 15 -83 33 -100 40 -16 7 -43 18 -60 25 -16 7 -43 18 -60 25 -16 7 -43 18
-60 25 -16 7 -43 18 -60 25 -16 7 -61 25 -100 40 -38 15 -83 33 -100 40 -16 7
-43 18 -60 25 -16 7 -43 18 -60 25 -32 14 -52 22 -125 50 -25 10 -69 28 -98
41 -29 13 -56 24 -61 24 -8 0 -60 23 -93 41 -10 5 -22 9 -28 9 -5 0 -33 11
-62 24 -29 13 -73 31 -98 41 -25 10 -69 28 -98 41 -29 13 -57 24 -62 24 -6 0
-18 4 -28 10 -19 10 -57 26 -157 65 -38 15 -83 33 -100 40 -16 7 -43 18 -60
25 -16 7 -43 18 -60 25 -16 7 -43 18 -60 25 -16 7 -43 18 -60 25 -16 7 -61 25
-100 40 -38 15 -83 33 -100 40 -16 7 -43 18 -60 25 -16 7 -43 18 -60 25 -16 7
-43 18 -60 25 -16 6 -43 18 -58 26 -16 8 -34 14 -41 14 -7 0 -36 11 -64 25
-29 14 -56 25 -61 25 -5 0 -22 6 -38 14 -15 8 -41 20 -58 26 -16 7 -43 18 -60
25 -48 20 -77 31 -125 50 -25 10 -69 28 -98 41 -29 13 -57 24 -61 24 -5 0 -22
6 -38 14 -15 8 -39 19 -53 24 -169 68 -242 98 -280 115 -25 12 -48 23 -52 25
-5 2 -8 -478 -8 -1067z"/>
<path d="M13185 16535 c-27 -14 -53 -25 -58 -25 -4 0 -30 -11 -59 -25 -28 -14
-55 -25 -60 -25 -4 0 -33 -12 -65 -26 -62 -27 -100 -44 -148 -64 -16 -7 -43
-18 -60 -25 -16 -7 -48 -20 -70 -30 -22 -9 -51 -21 -65 -27 -26 -11 -63 -27
-115 -48 -16 -7 -43 -18 -60 -25 -16 -7 -43 -18 -60 -25 -16 -7 -43 -18 -60
-25 -16 -7 -48 -20 -70 -30 -66 -27 -78 -32 -137 -59 -31 -14 -63 -26 -70 -26
-8 0 -18 -4 -23 -9 -6 -5 -46 -23 -90 -41 -44 -18 -98 -40 -120 -50 -22 -10
-65 -28 -95 -40 -30 -13 -59 -27 -65 -32 -5 -4 -15 -8 -22 -8 -12 0 -98 -36
-156 -66 -16 -8 -33 -14 -38 -14 -6 0 -36 -12 -67 -26 -31 -14 -68 -30 -82
-36 -14 -5 -38 -16 -55 -23 -30 -13 -88 -37 -135 -57 -14 -5 -38 -16 -55 -23
-16 -7 -43 -18 -60 -25 -16 -7 -43 -18 -60 -25 -16 -7 -43 -18 -60 -25 -52
-21 -89 -37 -115 -48 -14 -6 -43 -18 -65 -27 -22 -10 -53 -23 -70 -30 -16 -7
-43 -18 -60 -25 -48 -20 -86 -37 -148 -64 -32 -14 -61 -26 -65 -26 -5 0 -32
-11 -60 -25 -29 -14 -58 -25 -65 -25 -7 0 -17 -4 -23 -9 -5 -5 -60 -30 -123
-56 -62 -25 -121 -50 -130 -55 -9 -4 -38 -17 -66 -27 l-50 -19 -3 -1073 c-1
-590 1 -1071 5 -1069 20 9 70 31 93 40 14 6 39 16 55 23 17 7 44 18 60 25 17
7 44 18 60 25 17 7 62 25 100 40 39 15 84 33 100 40 17 7 44 18 60 25 17 7 44
18 60 25 48 20 77 31 125 50 25 10 69 28 98 41 29 13 56 24 61 24 8 0 60 23
93 41 10 5 22 9 28 9 5 0 33 11 62 24 29 13 73 31 98 41 66 26 94 38 255 105
11 4 52 20 90 35 39 15 84 33 100 40 17 7 44 18 60 25 17 7 44 18 60 25 17 7
44 18 60 25 17 7 44 18 60 25 17 7 62 25 100 40 39 15 84 33 100 40 17 7 44
18 60 25 17 7 44 18 60 25 17 7 44 18 60 25 17 6 43 18 58 26 16 8 35 14 42
14 7 0 26 6 42 14 15 8 42 20 58 26 17 7 44 18 60 25 17 7 44 18 60 25 17 7
44 18 60 25 17 7 62 25 100 40 68 27 115 45 165 67 64 28 88 37 240 98 58 23
114 46 125 50 35 15 99 42 120 50 11 5 36 15 55 23 19 8 67 27 105 42 39 15
84 33 100 40 17 7 44 18 60 25 17 6 43 18 58 26 16 8 33 14 38 14 4 0 32 11
61 24 29 13 73 31 98 41 48 19 77 30 125 50 17 7 44 18 60 25 17 7 44 18 60
25 17 7 62 25 100 40 39 15 84 33 100 40 17 7 44 18 60 25 17 7 44 18 60 25
17 7 44 18 60 25 17 7 44 18 60 25 17 7 62 25 100 40 39 15 86 34 105 42 19 8
46 19 60 25 14 5 39 16 55 23 48 20 77 31 125 50 25 10 69 28 98 41 29 13 56
24 61 24 8 0 60 23 93 41 10 5 22 9 28 9 5 0 33 11 62 24 29 13 73 31 98 41
77 30 94 37 125 50 28 12 84 36 130 55 11 4 36 14 55 21 47 17 57 27 34 34
-10 4 -26 10 -34 15 -8 5 -44 23 -80 41 -36 17 -537 267 -1115 554 -577 287
-1057 525 -1065 529 -8 3 -28 15 -45 25 -40 26 -60 25 -120 -4z"/>
</g>
</svg>
