<?xml version="1.0" standalone="no"?>
<!DOCTYPE svg PUBLIC "-//W3C//DTD SVG 20010904//EN"
 "http://www.w3.org/TR/2001/REC-SVG-20010904/DTD/svg10.dtd">
<svg version="1.0" xmlns="http://www.w3.org/2000/svg"
 width="3543.000000pt" height="3543.000000pt" viewBox="0 0 3543.000000 3543.000000"
 preserveAspectRatio="xMidYMid meet">

<g transform="translate(0.000000,3543.000000) scale(0.100000,-0.100000)"
fill="#000000" stroke="none">
<path d="M4372 21378 l3 -431 2568 -1085 c1412 -597 2567 -1089 2567 -1092 0
-4 -630 -249 -1401 -545 -770 -297 -1402 -542 -1404 -545 -2 -3 621 -257 1385
-565 763 -308 1386 -562 1385 -565 -2 -3 -1151 -487 -2554 -1075 l-2551 -1070
0 -392 c0 -216 1 -393 3 -393 1 1 1390 569 3087 1263 l3085 1262 3 421 2 421
-842 348 c-464 191 -854 354 -868 361 l-25 13 35 14 c19 8 388 160 820 337
432 177 806 331 833 342 l47 21 -2 420 -3 420 -3050 1258 c-1677 692 -3067
1265 -3088 1274 l-37 15 2 -432z"/>
<path d="M28380 17765 l0 -2355 300 0 300 0 0 953 c0 1046 1 1055 61 1227 82
236 254 407 470 466 96 27 346 25 450 -4 287 -78 440 -275 479 -614 6 -47 10
-506 10 -1055 l0 -973 300 0 301 0 -4 1113 c-3 1100 -3 1113 -25 1207 -41 179
-93 308 -179 440 -140 214 -331 351 -581 417 -131 34 -405 44 -562 19 -290
-46 -517 -179 -692 -406 l-27 -35 -1 978 0 977 -300 0 -300 0 0 -2355z"/>
<path d="M12290 17715 l0 -2306 933 3 c926 3 933 3 1040 26 284 60 503 172
691 352 205 196 321 420 357 687 18 138 7 366 -25 486 -63 244 -197 456 -379
603 -91 72 -242 153 -349 185 l-71 22 94 46 c128 63 210 120 300 210 233 232
331 543 289 916 -59 509 -401 890 -918 1021 -197 50 -281 54 -1154 54 l-808 0
0 -2305z m1550 1745 c47 -6 112 -17 145 -26 283 -69 486 -266 541 -524 25
-118 15 -310 -22 -420 -75 -224 -264 -392 -519 -462 -76 -21 -102 -22 -572
-26 l-493 -3 0 735 0 736 418 0 c230 0 456 -5 502 -10z m160 -2010 c210 -26
351 -90 477 -215 91 -92 148 -194 180 -320 24 -100 24 -326 -1 -415 -66 -237
-244 -413 -501 -493 -136 -42 -206 -47 -736 -47 l-499 0 0 750 0 750 498 0
c282 0 534 -4 582 -10z"/>
<path d="M4372 19079 l3 -423 672 -283 673 -283 472 236 c366 183 468 238 453
244 -50 19 -2260 922 -2267 926 -4 3 -7 -185 -6 -417z"/>
<path d="M17585 18614 c-144 -22 -261 -60 -400 -129 -155 -77 -255 -150 -389
-282 -311 -309 -463 -671 -483 -1148 -26 -647 216 -1167 691 -1487 121 -80
225 -132 365 -178 157 -53 266 -71 457 -77 475 -16 836 123 1139 438 105 109
186 227 249 360 43 92 73 176 65 182 -2 2 -110 40 -239 84 -129 45 -243 84
-252 88 -13 5 -20 0 -29 -22 -93 -229 -200 -370 -354 -468 -218 -140 -567
-174 -842 -83 -223 74 -446 274 -539 484 -36 81 -72 212 -79 286 -3 34 -8 80
-10 101 l-5 37 1184 0 1184 0 7 96 c17 222 -21 526 -92 749 -79 244 -184 419
-357 591 -156 155 -300 245 -501 312 -228 76 -537 102 -770 66z m375 -524
c286 -36 494 -171 615 -401 50 -95 74 -168 90 -279 8 -52 15 -101 15 -107 0
-10 -179 -13 -864 -13 l-864 0 5 43 c21 180 93 345 205 473 203 233 462 325
798 284z"/>
<path d="M25665 18624 c-682 -73 -1223 -575 -1354 -1259 -63 -324 -45 -680 50
-975 77 -239 208 -450 393 -635 226 -225 455 -349 766 -416 91 -20 135 -23
330 -23 172 -1 247 3 317 17 115 21 266 69 361 114 211 100 450 315 589 532
45 70 132 249 135 280 3 24 -30 40 -453 221 l-67 28 -33 -85 c-61 -157 -203
-341 -330 -427 -135 -91 -312 -131 -544 -123 -170 6 -239 20 -361 77 -373 173
-574 531 -574 1025 0 260 65 512 175 680 55 85 186 213 278 273 162 106 327
148 552 139 211 -8 353 -54 483 -156 112 -89 228 -258 283 -413 29 -80 33 -86
53 -78 11 4 129 54 261 110 132 56 245 104 252 107 8 3 3 30 -19 91 -92 265
-290 519 -528 679 -134 90 -328 165 -510 198 -92 16 -414 28 -505 19z"/>
<path d="M21814 18606 c-200 -38 -359 -113 -496 -233 -68 -59 -166 -174 -203
-238 -15 -25 -31 -45 -36 -45 -5 0 -9 95 -9 220 l0 220 -295 0 -295 0 0 -1560
0 -1560 305 0 305 0 0 958 c0 1061 0 1061 64 1234 46 122 89 190 181 284 65
66 96 89 165 122 115 55 235 77 386 68 206 -11 358 -69 470 -181 69 -68 107
-128 142 -224 57 -157 55 -120 59 -1233 l4 -1028 300 0 300 0 -4 1108 c-3
1079 -4 1109 -24 1202 -55 252 -150 442 -301 602 -121 128 -273 216 -460 265
-85 22 -121 26 -292 29 -134 2 -217 -1 -266 -10z"/>
<path d="M5045 16985 l-670 -283 -3 -422 c-1 -232 1 -419 5 -417 5 3 519 213
1143 467 624 254 1137 464 1139 466 3 3 -936 475 -941 473 -2 0 -304 -128
-673 -284z"/>
</g>
</svg>
