<svg width="32" height="32" viewBox="0 0 32 32" fill="none" xmlns="http://www.w3.org/2000/svg">
<g filter="url(#filter0_d_1046_3652)">
<path d="M16 24C22.6274 24 28 18.6274 28 12C28 5.37258 22.6274 0 16 0C9.37258 0 4 5.37258 4 12C4 18.6274 9.37258 24 16 24Z" fill="#D80027"/>
<path d="M21.8681 12L19.4702 13.1279L20.7471 15.4504L18.1431 14.9522L17.8133 17.5826L15.9994 15.6481L14.1857 17.5826L13.8558 14.9522L11.252 15.4503L12.5288 13.1278L10.1309 12L12.5288 10.8721L11.252 8.54956L13.8557 9.04784L14.1858 6.41736L15.9994 8.35193L17.8133 6.41736L18.1431 9.04784L20.7472 8.54956L19.4702 10.8723L21.8681 12Z" fill="#FFDA44"/>
<path d="M15.9998 15.6514C18.0169 15.6514 19.652 14.0163 19.652 11.9992C19.652 9.98218 18.0169 8.34705 15.9998 8.34705C13.9828 8.34705 12.3477 9.98218 12.3477 11.9992C12.3477 14.0163 13.9828 15.6514 15.9998 15.6514Z" fill="#D80027"/>
<path d="M14.1746 12.0004C14.0867 12.0004 13.9998 12.0049 13.9141 12.0134C13.9172 12.5192 14.1002 12.9822 14.4025 13.3419C14.5637 12.908 14.8045 12.5123 15.1081 12.1737C14.8181 12.0621 14.5035 12.0004 14.1746 12.0004Z" fill="#FFDA44"/>
<path d="M15.2988 13.967C15.5182 14.0454 15.7544 14.0884 16.0008 14.0884C16.2472 14.0884 16.4834 14.0454 16.7027 13.967C16.5832 13.4977 16.3363 13.0788 16.0008 12.7495C15.6653 13.0787 15.4184 13.4977 15.2988 13.967Z" fill="#FFDA44"/>
<path d="M17.8079 10.9573C17.447 10.3335 16.7731 9.91345 16.0006 9.91345C15.2281 9.91345 14.5542 10.3335 14.1934 10.9573C14.8512 10.9606 15.4681 11.1395 16.0006 11.4483C16.5332 11.1395 17.15 10.9606 17.8079 10.9573Z" fill="#FFDA44"/>
<path d="M16.8936 12.1739C17.1972 12.5125 17.4379 12.9082 17.5992 13.3421C17.9014 12.9825 18.0844 12.5195 18.0876 12.0136C18.0018 12.0051 17.9149 12.0006 17.827 12.0006C17.4982 12.0006 17.1836 12.0623 16.8936 12.1739Z" fill="#FFDA44"/>
</g>
<defs>
<filter id="filter0_d_1046_3652" x="0" y="0" width="32" height="32" filterUnits="userSpaceOnUse" color-interpolation-filters="sRGB">
<feFlood flood-opacity="0" result="BackgroundImageFix"/>
<feColorMatrix in="SourceAlpha" type="matrix" values="0 0 0 0 0 0 0 0 0 0 0 0 0 0 0 0 0 0 127 0" result="hardAlpha"/>
<feOffset dy="4"/>
<feGaussianBlur stdDeviation="2"/>
<feComposite in2="hardAlpha" operator="out"/>
<feColorMatrix type="matrix" values="0 0 0 0 0 0 0 0 0 0 0 0 0 0 0 0 0 0 0.25 0"/>
<feBlend mode="normal" in2="BackgroundImageFix" result="effect1_dropShadow_1046_3652"/>
<feBlend mode="normal" in="SourceGraphic" in2="effect1_dropShadow_1046_3652" result="shape"/>
</filter>
</defs>
</svg>
